<?xml version="1.0" encoding="UTF-8" standalone="no" ?>
<!DOCTYPE svg PUBLIC "-//W3C//DTD SVG 1.1//EN" "http://www.w3.org/Graphics/SVG/1.1/DTD/svg11.dtd">
<svg xmlns="http://www.w3.org/2000/svg" xmlns:xlink="http://www.w3.org/1999/xlink" version="1.1" width="500" height="500" viewBox="0 0 500 500" xml:space="preserve">
<desc>Created with Fabric.js 3.6.3</desc>
<defs>
</defs>
<g transform="matrix(3.07 0 0 3.07 250 250)"  >
<path style="stroke: none; stroke-width: 0; stroke-dasharray: none; stroke-linecap: butt; stroke-dashoffset: 0; stroke-linejoin: miter; stroke-miterlimit: 4; fill: rgb(151,21,34); fill-rule: nonzero; opacity: 1;"  transform=" translate(-50, -49.9975)" d="M 48.131 2.33 v 0.051 l 0.103 -0.051 h 3.021 l 0.358 0.051 l 0.051 -0.051 l 0.308 0.051 c 4.232 0 9.387 0.99 15.463 2.97 c 3.414 1.263 6.793 2.902 10.139 4.916 c 2.082 1.229 4.506 3.021 7.271 5.376 c 3.346 3.175 5.564 5.632 6.656 7.374 c 2.561 3.481 4.558 7.219 5.991 11.213 c 1.639 4.984 2.458 9.336 2.458 13.057 L 100 47.491 h -0.051 L 100 47.542 v 3.225 l -0.051 0.052 L 100 50.871 c 0 2.525 -0.512 6.16 -1.536 10.906 c -0.956 3.345 -1.997 6.212 -3.123 8.602 c -1.229 2.424 -2.901 5.035 -5.019 7.834 c -1.365 1.673 -3.141 3.567 -5.325 5.684 c -3.516 2.97 -6.485 5.172 -8.909 6.605 c -1.058 0.546 -2.014 0.819 -2.867 0.819 c -2.287 0 -3.823 -1.127 -4.608 -3.38 c -0.137 -0.614 -0.205 -1.144 -0.205 -1.587 c 0 -1.946 1.707 -3.806 5.121 -5.581 c 1.058 -0.512 2.747 -1.81 5.068 -3.892 c 2.97 -2.936 5.035 -5.376 6.196 -7.322 c 1.331 -2.048 2.44 -4.182 3.328 -6.4 c 1.229 -3.481 1.843 -5.752 1.843 -6.81 l 0.513 -3.277 l -0.103 -0.051 l 0.103 -0.308 v -0.461 l 0.051 -0.052 l -0.051 -0.051 l 0.051 -0.205 l 0.051 -2.304 c 0 -10.172 -3.771 -19.014 -11.315 -26.523 c -2.799 -2.492 -4.864 -4.113 -6.195 -4.864 c -6.964 -4.335 -14.32 -6.503 -22.069 -6.503 h -2.355 l -0.307 0.051 v -0.051 l -0.051 0.051 h -0.052 c -3.447 0 -7.612 0.802 -12.493 2.407 c -2.595 0.99 -5.206 2.287 -7.834 3.892 c -1.673 0.99 -3.994 2.867 -6.964 5.632 l -1.69 1.843 c -6.52 7.271 -9.78 15.6 -9.78 24.987 l 0.051 0.563 H 9.473 l 0.051 0.051 v 0.051 c 0 6.691 2.799 14.371 8.397 23.042 c 4.54 6.759 7.886 11.862 10.036 15.31 c 0.751 1.264 1.484 2.662 2.201 4.199 h -0.051 c -4.574 -2.082 -8.841 -4.523 -12.801 -7.322 c -3.004 -2.355 -5.444 -4.729 -7.322 -7.117 c -2.15 -3.004 -3.738 -5.564 -4.762 -7.681 c -1.229 -2.39 -2.373 -5.376 -3.431 -8.961 c -0.614 -2.253 -1.109 -4.693 -1.485 -7.321 l -0.256 -2.816 h 0.051 l -0.051 -0.052 L 0 49.897 v -1.434 l 0.051 -0.051 L 0 48.361 v -0.051 l 0.051 -0.051 L 0 48.208 l 0.051 -0.307 c 0 -4.677 1.229 -10.053 3.687 -16.129 c 1.536 -3.379 3.533 -6.725 5.991 -10.036 c 1.297 -1.775 3.431 -4.079 6.4 -6.913 c 3.072 -2.594 6.025 -4.676 8.858 -6.247 c 2.526 -1.4 5.718 -2.748 9.575 -4.045 c 3.141 -1.024 7.254 -1.741 12.34 -2.15 L 48.131 2.33 z M 48.694 15.694 v 0.103 l 0.051 -0.103 h 2.919 l 0.051 0.103 l 0.052 -0.103 c 2.287 0.068 5.223 0.546 8.807 1.434 c 3.106 0.99 5.684 2.065 7.731 3.226 c 1.912 1.058 4.097 2.663 6.555 4.813 c 3.072 2.97 5.052 5.206 5.939 6.708 c 1.673 2.424 2.97 5.001 3.892 7.732 c 0.751 1.877 1.28 4.591 1.587 8.141 v 0.051 h -0.051 l 0.051 0.051 v 1.895 c 0 9.25 -3.823 17.512 -11.47 24.782 c -3.516 3.106 -5.769 4.711 -6.759 4.813 c -0.614 0.273 -1.279 0.409 -1.997 0.409 H 65.95 c -2.151 0 -3.653 -1.075 -4.506 -3.226 l -0.257 -1.536 c 0 -2.253 1.502 -4.045 4.506 -5.376 c 0.956 -0.479 2.065 -1.332 3.328 -2.561 c 2.015 -2.117 3.448 -4.062 4.302 -5.838 c 0.785 -1.365 1.536 -3.276 2.253 -5.734 c 0.409 -2.014 0.614 -3.465 0.614 -4.352 h 0.051 l -0.051 -0.104 l 0.051 -0.256 v -2.765 l -0.051 -0.256 h 0.051 l -0.051 -0.205 c 0 -2.492 -0.87 -5.496 -2.611 -9.012 c -0.854 -1.57 -2.1 -3.243 -3.738 -5.018 c -1.74 -1.775 -3.208 -3.004 -4.403 -3.687 c -4.847 -3.106 -9.677 -4.66 -14.49 -4.66 h -0.153 l -0.052 -0.103 l -0.051 0.103 h -0.154 l -0.051 -0.103 l -0.051 0.103 h -0.563 l -0.052 -0.103 l -0.051 0.103 h -0.922 l -0.307 0.051 v -0.051 c -2.15 0.205 -3.823 0.478 -5.019 0.819 c -5.734 1.638 -10.206 4.335 -13.415 8.09 c -1.844 2.014 -3.277 4.147 -4.301 6.4 c -1.331 3.106 -1.997 6.025 -1.997 8.756 v 1.075 l -0.051 0.051 l 0.051 0.051 v 0.102 c 0 4.506 1.707 9.268 5.12 14.286 c 8.671 13.79 15.344 24.731 20.021 32.821 l -0.051 0.051 h -0.052 c -5.974 -0.546 -9.968 -1.109 -11.981 -1.689 c -7.953 -12.562 -12.408 -19.543 -13.364 -20.941 c -4.233 -6.418 -6.861 -11.129 -7.885 -14.133 c -1.127 -3.379 -1.69 -6.879 -1.69 -10.497 c 0 -7.851 2.577 -15.054 7.732 -21.608 c 0.785 -1.024 2.406 -2.646 4.864 -4.864 c 4.643 -3.687 9.711 -6.127 15.207 -7.322 C 43.711 16.172 46.031 15.864 48.694 15.694 z M 49.514 29.314 v 0.103 l 0.051 -0.103 h 1.588 l 0.103 0.103 l 0.051 -0.103 h 0.051 l 0.052 0.103 l 0.051 -0.103 c 1.502 0 3.533 0.358 6.094 1.075 c 5.188 1.843 9.131 5.257 11.828 10.241 c 1.502 3.106 2.253 6.145 2.253 9.114 v 0.307 c 0 5.667 -2.441 10.804 -7.322 15.412 c -2.048 1.639 -3.909 2.458 -5.581 2.458 c -2.083 0 -3.636 -1.109 -4.66 -3.328 c -0.17 -0.478 -0.272 -0.973 -0.307 -1.485 c 0 -1.706 1.263 -3.43 3.789 -5.171 c 1.809 -1.229 2.97 -2.646 3.481 -4.25 c 0.41 -1.161 0.614 -2.304 0.614 -3.431 v -0.205 c 0 -3.414 -1.502 -6.435 -4.506 -9.063 c -1.979 -1.468 -4.438 -2.202 -7.373 -2.202 l -0.409 0.051 v -0.051 l -0.052 0.051 h -0.103 c -2.696 0 -5.291 1.16 -7.782 3.481 c -2.015 2.321 -3.021 4.984 -3.021 7.988 c 0 2.56 1.758 6.332 5.274 11.316 c 9.08 14.303 16.061 25.584 20.941 33.846 c -4.369 1.16 -7.731 1.74 -10.087 1.74 c -4.506 -6.554 -9.797 -14.968 -15.873 -25.242 c -2.082 -3.482 -4.403 -7.084 -6.963 -10.805 c -2.287 -3.55 -3.432 -7.254 -3.432 -11.111 c 0 -5.359 1.963 -10.104 5.889 -14.234 c 2.116 -1.946 4.045 -3.329 5.786 -4.147 c 3.106 -1.297 5.172 -1.946 6.195 -1.946 C 46.715 29.587 47.841 29.45 49.514 29.314 z" stroke-linecap="round" />
</g>
<g transform="matrix(0.48223350253807107 0 0 0.07868020304568528 250.5 283.839225)"  >
<rect style="stroke: none; stroke-width: 1; stroke-dasharray: none; stroke-linecap: butt; stroke-dashoffset: 0; stroke-linejoin: miter; stroke-miterlimit: 4; fill: rgb(255,255,255); fill-rule: evenodd; opacity: 1;"  x="-393.5" y="-393.5" rx="0" ry="0" width="787" height="787" />
</g>
<g transform="matrix(0.5 0 0 0.5 250 280.99999999999994)" style=""  ><path fill="#971522" opacity="1" d="M-200.70 22.62L-220.07-2.29L-201.35-24.76L-210.64-24.76L-212.72-20.08L-227.34-2.22L-227.34-24.76L-234.76-24.76L-233.82-18.13L-233.82 22.62L-226.62 22.62L-227.34 17.22L-227.34-1.36L-209.27 22.62Z"/><path fill="#971522" opacity="1" d="M-158.65 22.62L-173.41 3.03C-167.72 0.37-164.20-4.89-164.20-10.50C-164.20-20.22-171.83-24.76-179.75-24.76L-193.14-24.76L-192.20-18.13L-192.20 22.62L-185.00 22.62L-185.72 17.22L-185.72 4.91C-181.48 4.91-180.47 4.91-179.68 4.83L-167.00 22.62ZM-185.72-0.42L-185.72-19.43L-181.04-19.43C-175.72-19.43-171.04-16.41-171.04-10.50C-171.04-5.03-175.72-0.42-181.04-0.42Z"/><path fill="#971522" opacity="1" d="M-143.39-24.76L-150.80-24.76L-149.87-18.13L-149.87 22.62L-142.67 22.62L-143.39 17.22Z"/><path fill="#971522" opacity="1" d="M-131.58 18.23C-131.58 18.23-127.19 23.55-118.69 23.55C-109.91 23.55-104.36 17.72-104.36 9.59C-104.36-4.53-124.67-3.66-124.67-14.03C-124.67-18.21-121.14-20.51-117.76-20.51C-112.28-20.51-107.68-17.34-107.53-16.98L-105.66-22.24C-107.82-23.61-111.85-25.62-117.54-25.62C-125.68-25.62-131.44-19.50-131.44-12.09C-131.44 0.66-110.77 1.02-110.77 10.52C-110.77 15.56-114.37 18.37-118.48 18.37C-125.60 18.37-130.86 12.03-130.86 12.03C-130.86 12.03-131.51 18.15-131.58 18.23Z"/><path fill="#971522" opacity="1" d=""/><path fill="#971522" opacity="1" d="M-40.28 22.62L-59.65-2.29L-40.93-24.76L-50.22-24.76L-52.31-20.08L-66.92-2.22L-66.92-24.76L-74.34-24.76L-73.40-18.13L-73.40 22.62L-66.20 22.62L-66.92 17.22L-66.92-1.36L-48.85 22.62Z"/><path fill="#971522" opacity="1" d="M-1.19 4.47C-1.19 12.11-6.16 18.30-13.28 18.30C-20.34 18.30-25.52 12.61-25.52 4.98L-25.52-24.76L-32.94-24.76L-32.00-18.13L-32.00 5.55C-32.00 6.71-31.57 23.55-14.58 23.55C-2.77 23.55 4.86 15.35 4.86 3.68L4.86-24.76L-2.12-24.76L-1.19-18.13Z"/><path fill="#971522" opacity="1" d="M54.11 22.62L39.35 3.03C45.04 0.37 48.56-4.89 48.56-10.50C48.56-20.22 40.93-24.76 33.01-24.76L19.62-24.76L20.56-18.13L20.56 22.62L27.76 22.62L27.04 17.22L27.04 4.91C31.28 4.91 32.29 4.91 33.08 4.83L45.76 22.62ZM27.04-0.42L27.04-19.43L31.72-19.43C37.04-19.43 41.72-16.41 41.72-10.50C41.72-5.03 37.04-0.42 31.72-0.42Z"/><path fill="#971522" opacity="1" d="M57.42 22.62L93.49 22.62L93.49 17.15L66.92 17.15L70.24 12.68L92.70-22.96L92.41-24.76L60.30-24.76L58.72-19.21L82.84-19.21L79.67-14.89L57.13 20.82Z"/><path fill="#971522" opacity="1" d="M95.44 22.62L101.70 22.62L106.38 10.23L124.02 10.23L128.56 22.62L136.40 22.62L132.80 14.70L118.12-25.69L113.72-24.76ZM114.66-11.73L115.52-14.61L116.24-11.80L122.22 4.76L108.32 4.76Z"/><path fill="#971522" opacity="1" d="M202.00-24.76L195.52-24.76L183.56 6.92L181.69 12.97L180.18 6.92L168.88-24.76L161.46-24.76L166.28-12.01L159.08 6.92L157.21 12.97L155.70 6.92L144.40-24.76L135.90-24.76L140.08-16.84L154.40 22.62L158.44 23.55L167.80-0.78L169.02-5.32L170.32-0.85L178.88 22.62L183.35 23.55Z"/><path fill="#971522" opacity="1" d="M200.63 22.62L206.89 22.62L211.57 10.23L229.21 10.23L233.75 22.62L241.60 22.62L238.00 14.70L223.31-25.69L218.92-24.76ZM219.85-11.73L220.72-14.61L221.44-11.80L227.41 4.76L213.52 4.76Z"/></g></svg>